<?xml version="1.0" ?><svg xmlns="http://www.w3.org/2000/svg" width="24" height="24" viewBox="0 0 24 24" fill="none"><path fill-rule="evenodd" clip-rule="evenodd" d="M12 7.5C9.51472 7.5 7.5 9.51472 7.5 12C7.5 14.4853 9.51472 16.5 12 16.5C14.4853 16.5 16.5 14.4853 16.5 12C16.5 9.51472 14.4853 7.5 12 7.5ZM6.5 12C6.5 15.0376 8.96243 17.5 12 17.5H14C15.4587 17.5 16.8576 16.9205 17.8891 15.8891C18.9205 14.8576 19.5 13.4587 19.5 12C19.5 10.5413 18.9205 9.14236 17.8891 8.11091C16.8576 7.07946 15.4587 6.5 14 6.5H12C8.96243 6.5 6.5 8.96243 6.5 12ZM17.182 8.81802C16.703 8.33902 16.1271 7.97916 15.5004 7.7575C16.7217 8.7663 17.5 10.2923 17.5 12C17.5 13.7077 16.7217 15.2337 15.5004 16.2425C16.1271 16.0208 16.703 15.661 17.182 15.182C18.0259 14.3381 18.5 13.1935 18.5 12C18.5 10.8065 18.0259 9.66193 17.182 8.81802ZM12.5 10C12.5 9.72386 12.2761 9.5 12 9.5C11.7239 9.5 11.5 9.72386 11.5 10V10.1785C10.9346 10.2594 10.5 10.7456 10.5 11.3333C10.5 11.9777 11.0223 12.5 11.6667 12.5H12.3333C12.4254 12.5 12.5 12.5746 12.5 12.6667C12.5 12.7587 12.4254 12.8333 12.3333 12.8333H11C10.7239 12.8333 10.5 13.0572 10.5 13.3333C10.5 13.6095 10.7239 13.8333 11 13.8333H11.5V14C11.5 14.2761 11.7239 14.5 12 14.5C12.2761 14.5 12.5 14.2761 12.5 14V13.8215C13.0654 13.7406 13.5 13.2544 13.5 12.6667C13.5 12.0223 12.9777 11.5 12.3333 11.5H11.6667C11.5746 11.5 11.5 11.4254 11.5 11.3333C11.5 11.2413 11.5746 11.1667 11.6667 11.1667H13C13.2761 11.1667 13.5 10.9428 13.5 10.6667C13.5 10.3905 13.2761 10.1667 13 10.1667H12.5V10Z" fill="black"/></svg>