<?xml version="1.0" ?><svg xmlns="http://www.w3.org/2000/svg" width="24" height="24" viewBox="0 0 24 24" fill="none"><path fill-rule="evenodd" clip-rule="evenodd" d="M2.5 6C2.5 5.72386 2.72386 5.5 3 5.5H4.71922C5.40752 5.5 6.0075 5.96845 6.17444 6.6362L6.39039 7.5H17.847C18.7598 7.5 19.461 8.30848 19.3319 9.21213L18.6176 14.2121C18.5121 14.9511 17.8792 15.5 17.1327 15.5H8.30902L8.17082 15.7764C8.0046 16.1088 8.24634 16.5 8.61803 16.5H17C17.2761 16.5 17.5 16.7239 17.5 17C17.5 17.2761 17.2761 17.5 17 17.5H8.61803C7.50296 17.5 6.77772 16.3265 7.27639 15.3292L7.46581 14.9504L5.51695 8.12935L5.20429 6.87873C5.14865 6.65615 4.94866 6.5 4.71922 6.5H3C2.72386 6.5 2.5 6.27614 2.5 6ZM8.37715 14.5H17.1327C17.3815 14.5 17.5925 14.317 17.6277 14.0707L18.342 9.07071C18.385 8.76949 18.1513 8.5 17.847 8.5H6.66286L8.37715 14.5ZM11 19C11 19.5523 10.5523 20 10 20C9.44772 20 9 19.5523 9 19C9 18.4477 9.44772 18 10 18C10.5523 18 11 18.4477 11 19ZM16 20C16.5523 20 17 19.5523 17 19C17 18.4477 16.5523 18 16 18C15.4477 18 15 18.4477 15 19C15 19.5523 15.4477 20 16 20Z" fill="black"/></svg>